<mxfile host="app.diagrams.net" modified="2024-01-02T18:43:25.735Z" agent="Mozilla/5.0 (Windows NT 10.0; Win64; x64) AppleWebKit/537.36 (KHTML, like Gecko) Chrome/120.0.0.0 Safari/537.36 Edg/120.0.0.0" etag="NJuWDOJ_zDzX9UvswJ7K" version="22.1.16" type="device">
  <diagram name="Page-1" id="XGWRXBHxe0I1QEJ_lzNT">
    <mxGraphModel dx="1230" dy="817" grid="1" gridSize="10" guides="1" tooltips="1" connect="1" arrows="1" fold="1" page="1" pageScale="1" pageWidth="827" pageHeight="1169" math="0" shadow="0">
      <root>
        <mxCell id="0" />
        <mxCell id="1" parent="0" />
        <mxCell id="q9ry65vpHNN9PVmFITkt-1" style="edgeStyle=orthogonalEdgeStyle;rounded=0;orthogonalLoop=1;jettySize=auto;html=1;exitX=0.5;exitY=1;exitDx=0;exitDy=0;entryX=0.5;entryY=0;entryDx=0;entryDy=0;" edge="1" parent="1" source="q9ry65vpHNN9PVmFITkt-2" target="q9ry65vpHNN9PVmFITkt-4">
          <mxGeometry relative="1" as="geometry" />
        </mxCell>
        <mxCell id="q9ry65vpHNN9PVmFITkt-2" value="Bắt đầu" style="ellipse;whiteSpace=wrap;html=1;" vertex="1" parent="1">
          <mxGeometry x="360" y="90" width="120" height="80" as="geometry" />
        </mxCell>
        <mxCell id="q9ry65vpHNN9PVmFITkt-3" style="edgeStyle=orthogonalEdgeStyle;rounded=0;orthogonalLoop=1;jettySize=auto;html=1;exitX=0.5;exitY=1;exitDx=0;exitDy=0;entryX=0.5;entryY=0;entryDx=0;entryDy=0;" edge="1" parent="1" source="q9ry65vpHNN9PVmFITkt-4" target="q9ry65vpHNN9PVmFITkt-6">
          <mxGeometry relative="1" as="geometry" />
        </mxCell>
        <mxCell id="q9ry65vpHNN9PVmFITkt-4" value="Lấy chuỗi mật khẩu đã nhập" style="rounded=0;whiteSpace=wrap;html=1;" vertex="1" parent="1">
          <mxGeometry x="360" y="200" width="120" height="60" as="geometry" />
        </mxCell>
        <mxCell id="q9ry65vpHNN9PVmFITkt-5" style="edgeStyle=orthogonalEdgeStyle;rounded=0;orthogonalLoop=1;jettySize=auto;html=1;exitX=0.5;exitY=1;exitDx=0;exitDy=0;entryX=0.5;entryY=0;entryDx=0;entryDy=0;" edge="1" parent="1" source="q9ry65vpHNN9PVmFITkt-6">
          <mxGeometry relative="1" as="geometry">
            <mxPoint x="420" y="400" as="targetPoint" />
          </mxGeometry>
        </mxCell>
        <mxCell id="q9ry65vpHNN9PVmFITkt-22" style="edgeStyle=orthogonalEdgeStyle;rounded=0;orthogonalLoop=1;jettySize=auto;html=1;exitX=1;exitY=0.5;exitDx=0;exitDy=0;entryX=0.5;entryY=0;entryDx=0;entryDy=0;" edge="1" parent="1" source="q9ry65vpHNN9PVmFITkt-6" target="q9ry65vpHNN9PVmFITkt-21">
          <mxGeometry relative="1" as="geometry" />
        </mxCell>
        <mxCell id="q9ry65vpHNN9PVmFITkt-6" value="Mật khẩu đúng" style="rhombus;whiteSpace=wrap;html=1;" vertex="1" parent="1">
          <mxGeometry x="355" y="290" width="130" height="80" as="geometry" />
        </mxCell>
        <mxCell id="q9ry65vpHNN9PVmFITkt-20" style="edgeStyle=orthogonalEdgeStyle;rounded=0;orthogonalLoop=1;jettySize=auto;html=1;exitX=0.5;exitY=1;exitDx=0;exitDy=0;entryX=0.5;entryY=0;entryDx=0;entryDy=0;" edge="1" parent="1" source="q9ry65vpHNN9PVmFITkt-10" target="q9ry65vpHNN9PVmFITkt-16">
          <mxGeometry relative="1" as="geometry" />
        </mxCell>
        <mxCell id="q9ry65vpHNN9PVmFITkt-10" value="Cho phép mở cửa" style="rounded=0;whiteSpace=wrap;html=1;" vertex="1" parent="1">
          <mxGeometry x="360" y="400" width="120" height="60" as="geometry" />
        </mxCell>
        <mxCell id="q9ry65vpHNN9PVmFITkt-13" value="F" style="text;html=1;align=center;verticalAlign=middle;resizable=0;points=[];autosize=1;strokeColor=none;fillColor=none;" vertex="1" parent="1">
          <mxGeometry x="460" y="290" width="30" height="30" as="geometry" />
        </mxCell>
        <mxCell id="q9ry65vpHNN9PVmFITkt-14" value="T" style="text;html=1;align=center;verticalAlign=middle;resizable=0;points=[];autosize=1;strokeColor=none;fillColor=none;" vertex="1" parent="1">
          <mxGeometry x="414" y="370" width="30" height="30" as="geometry" />
        </mxCell>
        <mxCell id="q9ry65vpHNN9PVmFITkt-19" style="edgeStyle=orthogonalEdgeStyle;rounded=0;orthogonalLoop=1;jettySize=auto;html=1;exitX=0.5;exitY=1;exitDx=0;exitDy=0;entryX=0.5;entryY=0;entryDx=0;entryDy=0;" edge="1" parent="1" source="q9ry65vpHNN9PVmFITkt-16" target="q9ry65vpHNN9PVmFITkt-18">
          <mxGeometry relative="1" as="geometry" />
        </mxCell>
        <mxCell id="q9ry65vpHNN9PVmFITkt-16" value="Lưu lịch sử" style="rounded=0;whiteSpace=wrap;html=1;" vertex="1" parent="1">
          <mxGeometry x="360" y="490" width="120" height="60" as="geometry" />
        </mxCell>
        <mxCell id="q9ry65vpHNN9PVmFITkt-18" value="Kết thúc" style="ellipse;whiteSpace=wrap;html=1;" vertex="1" parent="1">
          <mxGeometry x="360" y="580" width="120" height="80" as="geometry" />
        </mxCell>
        <mxCell id="q9ry65vpHNN9PVmFITkt-23" style="edgeStyle=orthogonalEdgeStyle;rounded=0;orthogonalLoop=1;jettySize=auto;html=1;exitX=0.5;exitY=1;exitDx=0;exitDy=0;entryX=0.5;entryY=0;entryDx=0;entryDy=0;" edge="1" parent="1" source="q9ry65vpHNN9PVmFITkt-21" target="q9ry65vpHNN9PVmFITkt-18">
          <mxGeometry relative="1" as="geometry">
            <Array as="points">
              <mxPoint x="590" y="570" />
              <mxPoint x="420" y="570" />
            </Array>
          </mxGeometry>
        </mxCell>
        <mxCell id="q9ry65vpHNN9PVmFITkt-21" value="Số lần xác thực sai tăng lên 1" style="rounded=0;whiteSpace=wrap;html=1;" vertex="1" parent="1">
          <mxGeometry x="530" y="400" width="120" height="60" as="geometry" />
        </mxCell>
      </root>
    </mxGraphModel>
  </diagram>
</mxfile>
